<svg width="16" height="12" viewBox="0 0 16 12" fill="none" xmlns="http://www.w3.org/2000/svg">
<path d="M2.52069 9.5407C1.2233 8.26124 0.614644 6.31538 0.980451 4.52703C1.34232 2.51859 2.90225 0.767878 4.87219 0.216103C5.83659 1.19451 6.81324 2.15978 7.78202 3.13294C7.98155 3.32547 8.16446 3.53506 8.37974 3.71053C7.69319 3.71753 7.00534 3.69215 6.31967 3.71884C5.37233 3.77879 4.56983 4.6723 4.62277 5.62227C4.61402 6.58098 5.47385 7.44737 6.433 7.44168C8.31979 7.44605 10.2062 7.44124 12.0921 7.44474C13.3317 8.68568 14.5692 9.92926 15.8153 11.1641C15.6228 11.2008 15.4272 11.1908 15.2329 11.189C12.3235 11.1895 9.41503 11.189 6.50651 11.1895C5.03146 11.1934 3.55773 10.5948 2.52069 9.5407Z" fill="#7C4EE4"/>
</svg>
