<svg width="16" height="12" viewBox="0 0 16 12" fill="none" xmlns="http://www.w3.org/2000/svg">
<path d="M4.52568 3.8854C3.29917 2.66721 2.09148 1.42889 0.850097 0.225135C3.7538 0.236511 6.65707 0.226884 9.56078 0.230385C10.0482 0.236948 10.5405 0.202819 11.0223 0.294271C12.2571 0.464485 13.4267 1.06877 14.2813 1.97541C15.2312 2.96038 15.7869 4.30721 15.8303 5.6733C15.8626 6.79917 15.5441 7.93378 14.9346 8.88068C14.2174 9.98204 13.109 10.8528 11.834 11.2011C10.8818 10.2336 9.91477 9.27975 8.9565 8.31753C8.76353 8.13857 8.60163 7.92416 8.38022 7.77626C8.41785 7.74519 8.45854 7.71894 8.50318 7.69793C9.11184 7.71062 9.72181 7.70887 10.3309 7.701C11.2761 7.67474 12.1057 6.81098 12.0869 5.86452C12.1144 5.09571 11.5942 4.3571 10.877 4.09324C10.6035 3.9751 10.3016 3.97335 10.0089 3.97597C8.24195 3.97772 6.47548 3.97554 4.70902 3.97729C4.63507 3.97772 4.57381 3.94709 4.52568 3.8854Z" fill="#7C4EE4"/>
</svg>
